<?xml version="1.0" encoding="utf-8"?>
<!-- Generator: Adobe Illustrator 26.0.1, SVG Export Plug-In . SVG Version: 6.00 Build 0)  -->
<svg version="1.1" id="Layer_1" xmlns="http://www.w3.org/2000/svg" xmlns:xlink="http://www.w3.org/1999/xlink" x="0px" y="0px"
	 viewBox="0 0 792 612" style="enable-background:new 0 0 792 612;" xml:space="preserve">
<style type="text/css">
	.st0{clip-path:url(#SVGID_00000014597638678590304810000001127800044162222505_);fill:#FCFCFC;}
	.st1{clip-path:url(#SVGID_00000014597638678590304810000001127800044162222505_);fill:#009DFF;}
	.st2{clip-path:url(#SVGID_00000014597638678590304810000001127800044162222505_);fill:#FFFFFF;}
</style>
<g>
	<defs>
		<rect id="SVGID_1_" width="792" height="612"/>
	</defs>
	<use xlink:href="#SVGID_1_"  style="overflow:visible;"/>
	<clipPath id="SVGID_00000098194349146506447730000013744302010422184594_">
		<use xlink:href="#SVGID_1_"  style="overflow:visible;"/>
	</clipPath>
	<path style="clip-path:url(#SVGID_00000098194349146506447730000013744302010422184594_);fill:#FCFCFC;" d="M429.5,367.4h21.3
		v-56.1h-21.3V367.4z"/>
	<path style="clip-path:url(#SVGID_00000098194349146506447730000013744302010422184594_);fill:#009DFF;" d="M428.9,371.5h22.2
		v-64.6h-22.2V371.5z M449,341c-0.9,1.6-1.8,3.2-2.6,4.9c-1.1,2.4-1.5,5.1-1.6,7.9c0,0.3-0.1,0.4-0.3,0.4c-2.9,0.1-5.7,0.2-8.6,0.2
		c-0.1,0-0.2,0-0.3,0c-0.1-0.9-0.2-1.7-0.3-2.6c-0.4-2.9-1.4-5.4-2.7-7.7c-0.6-1-1.2-2.1-1.9-3.1c-0.2-0.3-0.2-0.5-0.1-0.8
		c0.1-0.1,0.1-0.3,0.2-0.4c0.2-0.4,0.8-2.1,0.9-2.5c2.4-6.5,4.8-13,7.2-19.5c0-0.1,0.1-0.2,0.1-0.2c0,3,0.3,18.1,0.3,20.9
		c0,0.3,0,0.4-0.2,0.5c-1.2,0.6-1.9,2.3-1.7,4c0.2,1.8,1.3,3,2.5,2.9c1.3,0,2.3-1.3,2.4-3.1c0.2-1.7-0.6-3.4-1.8-3.9
		c-0.2-0.1-0.3-0.2-0.3-0.5c0-2.8-0.3-17.9-0.3-20.9c0,0,0,0,0.1,0c0.3,0.7,0.6,1.4,0.8,2.1c2.4,5.9,4.8,11.7,7.2,17.6
		c0.1,0.2,0.7,1.6,0.8,2c0,0,0,0.1,0,0.1C449.6,339.8,449.4,340.3,449,341 M435.5,363.8c0.1-2.6,0.1-5.2,0.2-7.9
		c3.1-0.1,6.1-0.2,9.1-0.3c0.1,2.6,0.3,5.2,0.4,7.9C442,363.6,438.8,363.7,435.5,363.8"/>
	<path style="clip-path:url(#SVGID_00000098194349146506447730000013744302010422184594_);fill:#FFFFFF;" d="M438.7,272.3
		c-8.1,0-14.8,6.6-14.8,14.8c0,8.1,6.6,14.8,14.8,14.8c8.1,0,14.8-6.6,14.8-14.8C453.5,278.9,446.9,272.3,438.7,272.3"/>
	<path style="clip-path:url(#SVGID_00000098194349146506447730000013744302010422184594_);fill:#009DFF;" d="M400.3,214.9h-4.6
		c-0.4,0.7-0.7,1.7-1.3,1.9c-1.7,0.6-3.5,1-5.3,1.4c-2.4-2.9-5.7-1.1-8.6-1.5c-1.8-0.3-2.5,0.7-2.5,2.5c0,1,0,2,0,3.2
		c-1.9,0.4-3.8,0.8-5.9,1.2c0-4.6,0-9,0-13.4c0-1.2,0.9-1.3,1.8-1.3c2.3,0,4.7,0.1,7,0c0.5,0,1.1-0.5,1.6-0.8
		c-0.5-0.3-1.1-0.8-1.6-0.8c-2.1-0.1-4.3-0.1-6.4,0c-1.7,0.1-2.5-0.4-2.4-2.3c0.1-3.4-1.6-4.5-4.9-3.5c-0.3,0.1-0.6,0.5-0.8,0.8
		c0.3,0.3,0.6,0.7,0.9,0.8c1,0.2,2,0.1,3.1,0.2v20.4c-1.5,0-2.8,0-4.2,0c-1.4,0-2.1,0.7-2.1,2.1c0,3.1,0,6.3,0,9.4
		c0,0.5,0.5,1,0.8,1.5c0.3-0.5,0.8-1,0.9-1.6c0.1-2.4,0-4.9,0-7.4c0-0.7,0-1.4,0-1.8c3.8-0.5,7.4-0.8,11-1.4
		c3.2-0.5,3.1-0.6,3.1-3.7c0-0.6,0-1.2,0-2h7.1c0,1.7-0.1,3.4,0,5.2c0,0.6,0.5,1.2,0.8,1.8c0.3-0.6,0.8-1.2,0.9-1.8
		c0.1-1.1,0-2.2,0-3.6c1.5-0.4,3-0.9,4.5-1.3c1.1-0.3,1.4,0.3,1.1,1.3c-0.3,1.1-0.7,2.3-1.2,3.7c2.4,0,4.6,0,6.8,0
		c3.3,0,6.7,0.1,10,0c1.5,0,2.1,0.4,2.1,2c-0.1,3.3,0.7,4,3.9,4c8.1,0,16.2,0,24.3,0c0.8,0,1.7-0.4,2.4-0.9c1.2-0.8,2.4-0.9,3.4,0.2
		c1,1,0.9,2.2,0,3.2c-1,1.1-2.2,1-3.4,0.2c-0.7-0.4-1.5-0.8-2.3-0.8c-8.1-0.1-16.2,0-24.3,0c-4.2,0-5.4-1-5.9-5.3
		c0-0.2-0.1-0.3-0.3-0.7c-5.5,0-11.1,0-16.7,0c-0.5,0-1.1,0.5-1.3,1c-0.6,1-1,2-1.5,3c-0.5,1-1.1,1.4-1.8,0.1
		c-0.2-0.4-0.7-0.6-1-0.8c-0.2,0.4-0.5,0.8-0.6,1.2c-0.1,0.5-0.1,1.1,0,1.7c0.2,1.9-0.3,3.4-1.6,4.8c-0.6,0.6-0.9,1.7-1,2.7
		c-0.2,1.5,0,3,0,4.6h12.8c1.5-3.6,2.2-4.1,6.2-4.1c3.5,0,7,0,10.6,0c1.4,0,2.7,0.2,4-1.1c0.9-0.9,2.3-0.6,3.1,0.5
		c0.8,1,0.7,2.2-0.2,3.1c-1,1-2.1,0.9-3.2,0.2c-0.9-0.5-1.9-0.9-2.8-1c-4-0.1-7.9-0.1-11.9,0c-2.7,0-3.2,0.5-3.8,3.1
		c-0.1,0.5-1,1.2-1.5,1.2c-4.5,0.1-9,0-13.6,0.1c-1.2,0-1.5-0.6-1.5-1.6c0.1-1.3,0-2.5,0-3.8c-0.2,0-0.3-0.1-0.4-0.1
		c-0.6,0.3-1.2,0.6-1.8,1c-0.1-0.7-0.4-1.4-0.4-2.1c0-2.8,0-5.7-0.1-8.5c0-0.5-0.6-1-0.9-1.6c-0.3,0.5-0.8,1.1-0.8,1.6
		c-0.1,4.1,0,8.2,0,12.3c0,0.1,0,0.3,0,0.4c0.1,1.5,5.7,6.8,7.2,6.8c15.6,0,31.3,0,46.9,0c0.6,0,1.3-0.3,1.8-0.7
		c1.2-1,2.4-1.1,3.5,0.1c0.9,1,0.9,2.2,0,3.2c-1,1.1-2.2,0.9-3.4,0.1c-0.7-0.5-1.7-0.8-2.5-0.8c-15.5,0-30.9-0.1-46.4,0
		c-1.4,0-2.5-0.3-3.3-1.4c-3.2-4.7-7.6-6.3-13.1-5.4c-0.9,0.1-1.9,0-3.1,0c0-1.4,0.1-2.7,0-4c0-0.5-0.6-0.9-0.9-1.3
		c-0.2,0.4-0.5,0.9-0.7,1.3c-0.1,0.1,0,0.2,0,0.4c-0.2,5.4-0.2,5.4,5.2,5.4h3.9c0.1,0.2,0.2,0.4,0.3,0.6c-0.5,0.4-0.9,0.9-1.5,1.1
		c-2.4,1-4.8,1.9-7.2,2.9c-3.2,1.3-3.2,1.3-2.8,5.2c0.7,0,1.4,0,2.1,0c7.7,0,15.3,0,23,0c1.3,0,2.4-0.1,2.8,1.7
		c0.1,0.6,1.4,1.3,2.2,1.3c5.5,0.1,10.9,0.1,16.4,0c0.5,0,1.1-0.4,1.6-0.8c1.2-1,2.4-1.1,3.5,0c1,1,1,2.2,0,3.2
		c-1,1.1-2.1,1-3.4,0.2c-0.6-0.4-1.4-0.7-2.1-0.8c-5.2-0.1-10.3-0.1-15.5,0c-1.9,0-3.4-0.6-4.4-2.3c-0.3-0.5-1.3-0.8-2-0.8
		c-7.9-0.1-15.7,0-23.6,0c-2.5,0-2.5,0-2.5-2.5c0-1,0.5-2.2-1.1-2.8c-0.3-0.1-0.2-1.4-0.4-2.1c-0.1-0.4-0.5-0.7-0.8-1.1
		c-0.3,0.3-0.7,0.6-0.8,1c-0.1,0.5-0.1,1,0,1.5c0.2,1.4-0.3,2.3-1.9,2.4c-1,0.1-1.5,0.6-1.4,1.7c0.1,1.9,0.1,3.8,0,5.7
		c0,1.8,0.8,2.5,2.5,2.4c6.9,0,13.8,0,20.7,0c1.5,0,2.3,0.3,2.1,2c0,0.6,0.4,1.2,0.8,1.7c0.9,1.2,0.9,2.7-0.1,3.6
		c-1.1,0.9-2.3,0.9-3.2-0.1c-1-1-0.9-2.2,0-3.4c0.4-0.5,0.7-1,1.3-1.9c-1.2,0-1.9,0-2.6,0c-6.3,0-12.6,0-18.9,0
		c-3.1,0-4.4-1.3-4.4-4.3c0-2,0-4,0-6c0-0.1,0-0.1-0.1-0.4c-3.1-0.3-3.2-2.5-3.1-5c0.1-3.7,0-7.4,0-11.1c0-2.7,0.6-3.3,3.4-3.3
		c1.6,0,3.1,0,4.9,0c0,2.7,0,5.3,0,7.9c0,0.6-0.1,1.3,0.1,1.9c0.1,0.3,0.5,0.6,0.7,0.9c0.3-0.3,0.8-0.5,0.8-0.8
		c0-3.5,0.1-6.9-0.1-10.4c0-0.5-1.2-1.1-2-1.2c-1.6-0.2-3.3,0-4.9-0.1c-2.1,0-2.9-0.7-2.9-2.8c0-8.7,0-17.5,0-26.2
		c0-2,0.8-2.7,2.7-2.8c2.6,0,5.2,0,7.7-0.1c0.6,0,1.2-0.5,1.8-0.8c-0.6-0.3-1.2-0.8-1.8-0.9c-2.5-0.1-5,0-7.5,0c-2.2,0-3-0.8-3-2.9
		c0-4.2,0-8.4,0-12.6c0-2.1,0.8-2.9,3-2.9c6.1,0,12.2,0,18.3,0c1.8,0,2.3,0.7,2.3,2.4c-0.1,2.7,0,5.4,0,8.1c0,2.2,0.5,2.7,2.6,2.7
		c4.5,0,9,0,13.6,0c0.6,0,1.1-0.5,1.7-0.8c-0.6-0.3-1.1-0.9-1.7-1c-4.1-0.1-8.2-0.1-12.3,0c-1.6,0-2.2-0.6-2.2-2.2
		c0.1-5,0.1-9.9,0-14.9c0-0.6-0.5-1.2-0.8-1.8c-0.3,0.6-0.9,1.2-0.9,1.8c0,4.3,0,3.9-4.1,3.9c-5.4,0-10.8,0-16.2,0
		c-2.7,0-3.3-0.6-3.3-3.4c0-9.2,0-18.4,0-27.5c0-2.7,0.6-3.3,3.3-3.3c4.3,0,8.5,0,12.8,0c0.5,0,1,0.1,1.5-0.1c0.4-0.1,0.7-0.6,1-0.9
		c-0.4-0.3-0.7-0.7-1.1-0.8c-2.2-0.1-4.4,0-6.6,0c-2.6,0-5.2,0-7.7,0c-2.2,0-3.2-0.8-3.2-2.3c0-1.6,1.1-2.4,3.3-2.5
		c2.7,0,5.4,0,8.1,0c0.5,0,1-0.6,1.5-0.9c-0.5-0.3-1-0.7-1.5-0.7c-2.8-0.1-5.5,0-8.3,0c-2.4,0-3.1-0.8-3.1-3.2c0-2,0-4,0-6
		c0-1.7,0.8-2.3,2.4-1.7c2.3,0.8,4.5,1.6,6.9,2.5c0.1-0.6,0.1-1.1,0.2-1.5c0.2-2.8,2-4.5,4.8-4.5c3.9,0,7.8,0,11.7,0
		c2.3,0,3.1-0.6,3.3-2.9c0.1-1.6,1-1.6,2.1-1.6c8,0,16,0,23.9,0c0.9,0,1.8-0.5,2.6-0.9c1.3-0.8,2.4-0.7,3.4,0.4
		c0.9,1,0.8,2.1-0.1,3.1c-1,1.1-2.2,1.1-3.4,0.2c-0.6-0.4-1.3-0.9-1.9-0.9c-8-0.1-16,0-23.9,0c-0.2,0-0.5,0-0.7,0.1
		c-1.1,3.6-2.3,4.4-6,4.4c-3.6,0-7.2,0-10.7,0c-2.6,0-4,2-3.2,4.5c0.1,0.4,0.6,0.7,1.1,0.9c1.6,0.6,3.1,1.3,4.8,1.7
		c1.9,0.5,2.6,1.5,2.3,3.4c-0.1,0.7,0,1.3,0,1.9c-1,0.5-1.7,0.9-2.5,1.3c0.5,0.3,1.1,0.7,1.7,0.8c1.3,0.1,2.5,0,2.6-1.7
		c0-0.6-0.1-1.3,0.1-1.9c0.1-0.5,0.4-0.9,0.7-1.3c0.5,0.3,1,0.6,1.5,1c0.1,0.1,0.2,0.5,0.2,0.7c0,5.4,0,10.8,0,16.5
		c-2.2,0-4.3,0-6.4,0c-2.5,0-3,0.5-3,2.9c0,2.6,0,5.2,0,7.7c0,1.7,0.8,2.5,2.5,2.5c2.2-0.1,4.5,0,7,0c0,1.4-0.1,2.6,0,3.7
		c0,0.4,0.6,0.8,0.9,1.2c0.3-0.4,0.7-0.8,0.8-1.2c0.1-1.1,0-2.2,0-3.6c1.2,0,2.3,0.1,3.3,0c0.5-0.1,1-0.5,1.5-0.8
		c-0.5-0.3-1-0.9-1.5-0.9c-3.5-0.1-7,0-10.6,0c-0.6,0-1.2,0-2,0v-9.6c2.6,0,5.2,0,7.8,0c0.6,0,1.1,0,1.7,0c1-0.1,1.2-0.6,0.7-1.5
		c-0.4-0.6-0.8-1.3-0.8-2c-0.1-3.8-0.1-7.5,0-11.3c0-0.6,0.3-1.3,0.5-1.9c0.6,0.2,1.2,0.4,1.9,0.6c0,0,0.2-0.1,0.2-0.1
		c0.2-3,0.2-3,3.2-3c5.1,0,10.2,0,15.3,0c2.5,0,3.5-0.9,3.4-3.4c-0.1-1.7,0.6-2.1,2.2-2.1c7.8,0.1,15.6,0.1,23.4,0
		c0.9,0,1.9-0.4,2.7-0.9c1.3-0.7,2.4-0.8,3.4,0.4c0.8,1.1,0.8,2.3-0.2,3.2c-1,0.9-2.1,0.8-3.3,0c-0.7-0.4-1.5-0.9-2.2-0.9
		c-7.5-0.1-15,0-22.4,0c-0.5,0-1,0.1-1.4,0.1c-0.8,4.4-1.9,5.3-6.3,5.3c-5.1,0-10.3,0-15.5,0c-0.6,2.1-0.3,3.7,1.2,5.2
		c0.9,0.9,1.3,2.2,1.9,3.3c-1.2,0.1-2.4,0.3-3.6,0.4c-0.1,0-0.3,0-0.4,0c-0.6,0.2-1.2,0.5-1.8,0.8c0.6,0.3,1.2,0.7,1.8,0.7
		c1.5,0.1,3,0.1,4.5,0c1.3,0,2.5-0.1,3.2,1.3c0.1,0.3,0.6,0.5,0.9,0.5c2.3,0,4.6,0,6.8,0c0.2-0.2,0.2-0.3,0.2-0.3
		c0.8-5.8,1.4-6.3,7.2-6.3c5.4,0,10.8,0,16.2,0c0.9,0,1.9-0.4,2.7-0.9c1.2-0.7,2.3-0.8,3.2,0.2c1,1,1,2.2,0.1,3.2
		c-1,1.1-2.1,1-3.4,0.3c-0.7-0.5-1.6-0.9-2.5-0.9c-6-0.1-11.9,0-17.9,0c-2.9,0-3.7,0.8-3.8,3.6c0,3,0,3-3.1,3c-1.6,0-3.1,0-4.9,0
		c0.3,1.6-0.6,1.8-1.8,1.7c-1.9-0.1-3.9-0.1-5.8,0c-0.4,0-0.9,0.5-1.3,0.8c0.4,0.3,0.9,0.9,1.3,0.9c2.6,0.1,5.2,0.1,7.7,0
		c1.3-0.1,2.2,0.3,2.5,1.6c0.4,2,1.7,2.4,3.6,2.3c5.3-0.1,10.6,0,15.8-0.1c1.7,0,2.3,0.6,2.2,2.2c-0.1,1.9,0,3.8,0,5.7
		c0,2.3,0.7,2.9,2.9,3c0.8,0,1.6,0,2.5,0c3.1,0,3.7-0.6,3.7-3.8c0-2.1,0-4.3,0-6.4c0-3.7,1.6-5.3,5.2-5.3c8.9,0,17.8,0,26.8,0
		c0.8,0,1.7-0.4,2.5-0.9c1.2-0.8,2.4-0.9,3.4,0.2c0.9,1,0.9,2.2-0.1,3.2c-1,1-2.1,0.9-3.2,0.2c-0.8-0.5-1.8-0.9-2.6-0.9
		c-8.8-0.1-17.6,0-26.4,0c-3,0-3.8,0.8-3.8,3.8c0,2.5,0,4.9,0,7.4c-0.1,2.7-1.5,4.2-4.2,4.3c-1.4,0.1-2.8,0.1-4.1,0
		c-2.7-0.1-4.2-1.7-4.2-4.3c0-1.9,0-3.9,0-5.8c0-0.1-0.1-0.2-0.2-0.5h-17.5c0,0.2,0,0.5,0,0.7c1.1,3.1,1.1,3.1-2.3,3.1
		c-1.8,0-3.5-0.1-5.3,0c-0.5,0-0.9,0.6-1.4,0.9c0.5,0.3,0.9,0.8,1.4,0.8c2.4,0.1,4.8,0.1,7.2,0c1.8-0.1,2.5,0.6,2.8,2.3
		c0.8,4.3,1.8,8.6,2.8,13c4,0,7.9,0,11.8,0c1.4,0,2.4,0.1,2.4,1.9c0,1.5,1.2,2.3,2.5,2.3c5.6,0.1,11.2,0.1,16.8,0
		c1.8,0,2.7-1.1,2.8-3.1c0.1-1.9,0.1-3.9,0-5.8c-0.1-1.5,0.6-1.9,2-1.9c5.6,0.1,11.2,0.1,16.8,0c0.9,0,1.9-0.4,2.7-0.9
		c1.3-0.8,2.4-0.8,3.4,0.3c0.9,1,0.8,2.3-0.1,3.2c-1.1,1-2.2,1-3.4,0c-0.4-0.3-0.9-0.8-1.4-0.8c-6-0.1-11.9,0-18.2,0c0,2,0,4,0,5.9
		c0,3.2-1.7,4.9-4.9,4.9c-5.3,0-10.7,0-16,0c-2.2,0-3.8-1-4.7-3.1c-0.2-0.5-0.8-1-1.2-1.1c-3.6-0.1-7.1,0-11,0
		c0.3,1.8,0.4,3.5,0.8,5.1c0.2,1.1,2.8,1.2,4,0.3c0.6-0.4,1.5-1,2.1-0.9c0.8,0.2,1.8,1,1.9,1.7c0.2,0.8-0.3,2-0.9,2.5
		c-0.5,0.4-2.1,0.5-2.5,0c-1.2-1.3-2.5-1-3.9-1c-0.1,2.6-0.1,2.6-2.7,2.7c-0.4,0-0.8-0.1-1.1,0.1c-0.3,0.2-0.6,0.6-0.7,0.9
		c0,0.2,0.4,0.5,0.7,0.7c0.1,0.1,0.2,0,0.4,0.1c1.1,0.1,2.7-0.1,3.3,0.5c0.6,0.7,0.3,2.3,0.4,3.8h8.9c0,1.6,0,2.8,0,4.1
		c0.1,2,1,3,3,3c2.7,0,5.4,0,8.1,0c2,0,3-1,3-3c0-2.5,0.1-4.9,0-7.4c0-1.3,0.3-1.8,1.7-1.8c10.8,0,21.6,0,32.4,0c3,0,4.9,2,5.1,5
		c0.1,1.9-0.3,3.8,1.2,5.5c0.3,0.4-0.2,2.2-0.8,2.6c-0.6,0.4-2.1,0.3-2.8-0.1c-1.1-0.6-1.4-2.1-0.4-3c1.8-1.7,1-3.8,1-5.6
		c-0.1-1.7-1.5-2.6-3.8-2.6c-10,0-20,0-30,0c-0.5,0-1,0.1-1.7,0.1c0,2.3,0,4.4,0,6.6c0,3.9-1.6,5.5-5.5,5.5c-2.3,0-4.7,0-7,0
		c-3.6,0-5.1-1.6-5.2-5.2c0-0.6-0.1-1.1-0.1-1.8h-7.2c0,1.3,0.1,2.6,0,3.9c-0.3,1.7-0.7,3.4-1.2,5.1c-0.1,0.3-0.7,0.5-1.1,0.8
		c-0.2-0.4-0.5-0.7-0.6-1.1c-0.5-3.8-0.5-3.8-4.3-3.8c-1.1,0-2.1-0.1-3.2,0c-0.6,0.1-1.2,0.5-1.8,0.8c0.6,0.3,1.2,0.8,1.7,0.8
		c2.1,0.1,4.1,0,6.3,0c0.1,1.4,0.1,2.7,0.2,4.2c1.4,0,2.8,0,4.1,0c2.7,0,2.7,0,2.9,3c0.7,0,1.4,0.1,2.1,0.1c14.6,0,29.2,0,43.7,0
		c1.5,0,2.8-0.2,3.2,1.9c0.1,0.7,1.6,1.5,2.4,1.6c3.4,0.2,6.8,0.1,10.2,0c0.5,0,1.1-0.4,1.6-0.8c1.2-0.9,2.3-1,3.4,0
		c1,1,1.1,2.2,0.1,3.2c-1.1,1.2-2.2,1.1-3.5,0.2c-0.6-0.4-1.4-0.8-2.1-0.8c-3-0.1-6-0.1-9,0c-2.1,0-3.7-0.7-4.8-2.7
		c-0.3-0.5-1.4-0.9-2.1-0.9c-14.5,0-29,0-43.5,0C400.9,217.8,400.9,217.8,400.3,214.9 M409.8,120.2c-0.8-0.5-1.3-1-1.7-1
		c-0.4,0.1-0.8,0.8-1.1,1.2c0.4,0.4,0.8,1,1.3,1C408.6,121.4,409.1,120.8,409.8,120.2 M456.9,174.5c-0.6,0.7-1.2,1.2-1.2,1.6
		c0,0.4,0.7,0.9,1.1,1.3c0.4-0.4,1.1-0.7,1.2-1.2C458,175.8,457.4,175.2,456.9,174.5 M467.4,218.9c-0.6,0.7-1.2,1.1-1.2,1.6
		c0,0.4,0.6,1.1,1,1.1c0.4,0,1.1-0.6,1.2-1C468.5,220.1,467.9,219.6,467.4,218.9 M406.1,190.6c-0.7-0.6-1.1-1.2-1.5-1.2
		c-0.4,0-1.1,0.7-1.1,1.1c0,0.4,0.6,1.1,1,1.2C404.8,191.7,405.3,191.1,406.1,190.6 M430,131.4c-0.8-0.6-1.3-1.1-1.7-1.1
		c-0.4,0.1-0.9,0.7-1,1.2c-0.1,0.3,0.7,1,1,1C428.7,132.5,429.1,132,430,131.4 M458.4,155.2c-0.8-0.5-1.3-1.1-1.7-1
		c-0.4,0.1-0.8,0.8-1.1,1.2c0.4,0.4,0.8,1,1.3,1C457.2,156.3,457.7,155.7,458.4,155.2 M446.2,230.6c-0.8-0.6-1.4-1.2-1.7-1.1
		c-0.4,0.1-0.9,0.7-1,1.2c-0.1,0.2,0.7,0.9,1.1,0.9C444.9,231.7,445.4,231.2,446.2,230.6 M462.5,206.4c-0.8-0.5-1.2-1.1-1.6-1.1
		c-0.4,0-0.8,0.7-1.2,1.1c0.4,0.4,0.8,1.1,1.2,1.1C461.3,207.5,461.7,206.9,462.5,206.4 M420.8,240.7c-0.8-0.5-1.2-1.1-1.7-1.1
		c-0.4,0-0.8,0.7-1.2,1.1c0.4,0.4,0.8,1,1.2,1.1C419.6,241.9,420,241.3,420.8,240.7 M413.5,260.9c-0.7-0.6-1.2-1.2-1.6-1.1
		c-0.4,0-0.8,0.7-1.2,1.1c0.4,0.4,0.8,1.1,1.2,1.1C412.3,262,412.7,261.4,413.5,260.9 M422.9,144.2c-0.8-0.6-1.2-1.1-1.7-1.1
		c-0.4,0-1.1,0.7-1.1,0.9c0.1,0.5,0.6,1.1,1,1.2C421.5,145.3,422,144.7,422.9,144.2 M379.8,270.5c-0.7-0.6-1.1-1.3-1.5-1.3
		c-0.4,0-1.1,0.6-1.2,1.1c0,0.4,0.6,1.1,1,1.2C378.5,271.6,379,271,379.8,270.5 M435.9,249.5c-0.6,0.7-1.2,1.2-1.2,1.6
		c0,0.4,0.6,0.8,1,1.3c0.4-0.4,1.1-0.7,1.1-1.1C437,250.8,436.4,250.3,435.9,249.5"/>
	<path style="clip-path:url(#SVGID_00000098194349146506447730000013744302010422184594_);fill:#009DFF;" d="M332.8,163.3
		c-1.5-0.8-3-1.7-4.6-2.4c-5.7-2.7-8.6-9.9-4.5-15.4c0.6-0.8,1.3-1.5,1.9-2.1c-3.3-0.7-6.1,1.8-5.8,5.5c0.2,1.9,0.6,3.9,0.6,5.8
		c0,1.2-0.3,2.5-0.7,3.6c-0.7,1.8-2.6,2.5-4.5,2c-0.5-0.1-1.1,0-1.7,0c0.2,0.6,0.3,1.3,0.7,1.7c2.8,3,5.1,6.2,5.6,10.4
		c0.4,3.2-0.4,4.4-3.3,5.7c-2,0.9-3.9,2-6.2,2.8c0.6-0.9,1.2-1.8,1.9-2.6c0.7-0.8,1.7-1.5,2.4-2.3c1.2-1.4,1.1-2.9,0.4-4.3
		c-0.9,1.6-1.7,3.3-2.9,4.7c-2.8,3.3-6.4,4.2-10.6,3.4c-1.9-0.4-2.9-2.1-2.4-4c0.4-1.6,1.4-2,3.6-1.6c1.2,0.2,2.4,0.3,3.5,0.3
		c0.3,0,0.7-0.7,1-1.1c-0.4-0.3-0.8-0.7-1.3-0.8c-0.7-0.1-1.5,0.1-2.2,0.1c-2.6,0.1-3.7-0.7-4.1-3.2c-0.7-3.9,2.1-7.9,6-8.8
		c0.7-0.1,1.3-0.4,2-0.6c1-0.4,1.2-0.8,0.8-2c-1-3-0.7-6.2,0.7-9c0.7-1.4,2.2-1.8,3.7-1.6c1.5,0.3,1.6,1.5,1.7,2.8
		c0.1,0.8,0.5,1.5,1.1,2.1c0.9-1.8,0.8-3.5,0.1-5.1c-1.3-3.1,0.9-7.8,4.1-8.9c2.2-0.7,4.3-1.3,6.6-0.1c0.3,0.2,0.9-0.1,1.3-0.2
		c-0.1-0.5-0.2-1-0.4-1.4c-0.1-0.2-0.4-0.3-0.6-0.4c-2.2-1.2-2.2-1.7-0.2-3.1c1.1-0.8,2.3-2.1,3.6-1c1,0.8,1.7,2.3,1.9,3.6
		c0.4,2.6-0.9,4.7-3.4,6.7c2.1-0.7,3.8-1.8,5.3-1.6c1.6,0.2,3,1.7,4.6,2.7c-0.1-1.4-1-2.4-1.9-3.5c-1.2-1.3-2.6-2.6-3.5-4.2
		c-1.4-2.4-0.8-5.1,1.1-6.9c1.8-1.7,4.1-1.8,6-0.3c1.9,1.5,2.2,3.3,1,5.7c-0.4,0.7-0.6,1.4-1.1,2.6c2.2-1.1,3.1-2.4,3.5-4.3
		c0.1-0.5,0.6-1,0.9-1.5c0.4,0.5,1,0.9,1.2,1.5c2.3,6.9-2,16.7-8.7,19.5c-1.7,0.7-3.6,0.9-5.3,1.5c3.1,1,5.9,0.3,8.5-1.7
		c0.7-0.6,2.1-1.2,2.7-0.8c0.7,0.4,1.2,1.8,1.1,2.7c-0.6,3.1-1.3,6.2-2.5,9.2c-1.7,4.3-4.9,7-9.9,6.8c1.4,1.5,3.1,1.3,4.7,0.8
		c3.5-1.1,5.9,0.6,8.3,2.6c1.8,1.6,2.1,4.3,1,6.8c-0.9,2.1-2.5,3.1-4.6,2.9c-0.7-0.1-1.6-0.2-2.1-0.7c-2-1.7-4.2-1.4-6.4-0.6
		c-1.3,0.5-2.3,0.4-3.5-0.4c-1.3-0.9-2.9-1.5-4.3-2.3c-2.3-1.2-4.3-2.8-2.9-6.4c0.3-0.7,0.3-1.5,0.3-2.2c0-2.8,1.4-4.7,3.4-6.4
		c1.3-1,2.7-1.5,4.4-0.9c0.9,0.3,1.9,0.3,2.9,0.4C332.7,163.7,332.8,163.5,332.8,163.3"/>
	<path style="clip-path:url(#SVGID_00000098194349146506447730000013744302010422184594_);fill:#009DFF;" d="M306.2,190
		c1.6-2.3,3.2-5,5.2-7.3c4.3-5.1,11.6-5.1,16,0c1,1.1,0.8,2.9-0.4,3.8c-1.2,0.9-2.8,1.6-2.7,3.9c1.3-1.3,2.5-2.4,3.7-3.6
		c2.4-2.5,4.9-3.3,8.5-2.1c1.8,0.6,4.1,1.5,6.3,0.4c1.5-0.7,2.5,0,2.8,1.7c0.1,0.5,0.1,1,0.1,1.5c0.1,2.7,0.2,5.4,0.4,8.1
		c0.3,3.9-1.3,6.2-5.1,7.2c-1.1,0.3-2.1,0.6-3.3,0.9c1.7,1.5,3.4,0.8,5.1,0.3c2.8-0.7,3.8,0.1,3.4,3.1c-0.2,1.3,0.1,2.6-0.1,3.9
		c-0.3,3.1-1.7,5.7-4.7,6.7c-3.2,1.1-6-0.4-8.6-2.2c-0.1,0-0.1-0.1-0.1-0.1c-0.9-2.2-2.3-4.3-2.7-6.5c-0.5-2.9-0.4-6.1,1.4-8.7
		c0.5-0.8,1.3-1.4,2.1-2.3c-1.5,0-2.6,0.2-3.2,1.5c-1.1,2.1-2.2,4.2-3.3,6.3c-0.2,0.4-0.5,0.9-0.9,1.6c-0.6-0.9-1-1.7-1.6-2.3
		c-1.1-1-2.2-2.5-3.5-2.8c-3.8-0.9-5.4-3.3-5.9-6.9c-0.2-1.5-0.3-3.1-0.9-4.7c-0.2,0.8-0.6,1.6-0.6,2.4c0,1.2,0.2,2.4,0.5,3.5
		c0.9,3.7,0.8,4.1-2.5,5.9c-0.5,0.2-1.1,0.4-1.6,0.3c-3.8-1-7.7-1.4-10.7-4.5c-1.7-1.7-3.9-2.8-4.4-5.6c-1.1-6.4,5.4-13.2,11.7-12.2
		c0.7,0.1,1.3,0.6,1.9,1c-0.3,0.6-0.5,1.3-1,1.8C306,185.7,305.5,188,306.2,190"/>
	<path style="clip-path:url(#SVGID_00000098194349146506447730000013744302010422184594_);fill:#009DFF;" d="M303.6,219.9
		c1.4-2.1,3.3-2.9,5.8-2.5c1.8,0.3,2.3-0.4,1.8-2.2c-0.4-1.5-1-3-1.4-4.5c-1.1-4.3,2-8.8,7-7.7c1,0.2,2.1,0.3,3.2,0.6
		c1.3,0.3,2,1.1,2.2,2.5c0.2,0.8,0.9,1.6,1.5,2.3c1.1,1.1,2.1,2.3,1.6,3.9c-0.4,1.2,0,2.1,0.7,3.1c0.5,0.8,0.6,1.9,1,3.4
		c0.3-1.1,0.7-2,0.7-2.9c0-1.8-0.4-3.5-0.3-5.3c0.1-1.5,0.6-2.9,1-4.4c0.3,0,0.5,0.1,0.8,0.1c0,0.8,0.1,1.5,0,2.3
		c-0.7,4.1,0.5,7.2,4,9.4c0.4,0.2,0.8,0.6,1.2,0.6c5.2,0.5,4.2,5.3,6.4,8.2c0-0.8,0.1-1.6,0-2.4c-0.1-0.9-0.6-1.8-0.6-2.7
		c0-0.6,0.4-1.6,0.9-1.8c1.2-0.6,2.6-1,3.9-1.2c0.3-0.1,1,0.5,1.1,0.9c0.2,0.8,0.2,1.6,0.2,2.4c0,3.1,0.1,6.3,0.1,9.4
		c0,2.9-4,7.2-6.9,7.6c-1.3,0.2-2.6,0.5-3.7,1c-2.3,1-3.8,0.2-3.6-2.4c0.1-2.2,0.5-4.4,0.6-6.5c0-0.8-0.4-1.6-0.6-2.4
		c-0.8,0.3-1.6,0.5-2.3,0.9c-2,0.9-3.9,2-5.9,2.8c-0.5,0.2-1.7-0.4-1.8-0.9c-0.8-3.4-1.5-6.8-2.2-10.3c-0.1-0.7-0.1-1.4,0.1-2.1
		c1-3-0.4-5.3-2.4-7.5c0.2,0.6,0.3,1.2,0.6,1.8c1.5,2.7,1.2,7.8-0.9,10c-0.7,0.8-2,1.3-3.1,1.5c-1.8,0.3-3.7,0.1-5.6,0.2
		c-0.4,0-0.7,0.2-1.1,0.6c0.2,0,0.4,0.1,0.6,0.1c1.3-0.2,2.7-0.1,3.3,1.2c0.7,1.4,0.6,3.1-0.4,4.5c-0.9,1.2-2.2,1.7-3.7,1.4
		c-2.4-0.4-3.6-2.1-4.3-4.3C301.9,225.5,302.6,222.6,303.6,219.9L303.6,219.9z"/>
	<path style="clip-path:url(#SVGID_00000098194349146506447730000013744302010422184594_);fill:#009DFF;" d="M345.6,236.7
		c-0.1,0.4-0.2,1.1-0.5,1.6c-1,1.5-1.5,2.7,0.4,4c0.5,0.4,0.7,1.6,0.5,2.3c-0.2,0.5-1.3,0.8-2,0.9c-1,0-1.9-0.3-3.1-0.2
		c0.4,0.3,0.8,0.7,1.2,0.9c3.8,1.5,4.3,2.3,3.7,6.2c-0.4,2.8-2.3,4.2-4.9,3.3c-4.1-1.5-8.1-3.3-12.1-5c-3.4-1.5-6.6-3.2-10.1-4.5
		c-3.4-1.3-5-3.2-4.5-6.2c0.1-0.8,1-1.9,1.5-1.9c0.8,0,2.2,0.8,2.2,1.4c0.3,2.5,2.1,2.4,3.6,2c2.5-0.7,4.1-0.2,5.2,2.2
		c0.4,0.8,1.4,1.4,2.3,1.9c2.5,1.6,4.1,1.4,4.9-1.6c0.5-1.9,2.1-2.8,3.9-3.4C340.3,239.3,342.8,238,345.6,236.7"/>
	<path style="clip-path:url(#SVGID_00000098194349146506447730000013744302010422184594_);fill:#009DFF;" d="M317,232.1
		c0.1,2.9-1.6,4.6-3.8,5.8c-1.9,1-3.9,0.1-4-1.8c0-0.8,0.6-2.2,1.1-2.2c2.1-0.3,2.1-1.9,2.2-3.4c0-0.1,0-0.3,0-0.4
		c0-3.9,0-3.9,3.7-5.2c1.7-0.6,2.9,0,3.3,1.7c0.5,2.1,0.9,4.1,1.3,6.2c0.2,1.5,1.2,1.4,2.2,1.1c1.9-0.6,3.8-1.2,5.7-1.9
		c1.5-0.5,2.4-0.1,2.3,1.5c0,1.2-0.3,2.4-0.7,3.5c-0.5,1.5-0.3,2.7,1,3.8c0.7,0.5,1.2,1.6,1.3,2.5c0.2,1.8-1.4,2.8-2.8,1.7
		c-1.3-1-2.4-2.3-3.4-3.7c-1.4-2.1-1.9-2.4-4.3-1.7c-1.8,0.5-3.8-1.1-4.4-3.4C317.5,234.9,317.3,233.4,317,232.1"/>
	<path style="clip-path:url(#SVGID_00000098194349146506447730000013744302010422184594_);fill:#009DFF;" d="M304.2,215.5
		c-0.8,1.2-1.7,2.4-3.3,2.2c-1.7-0.2-2.3-1.6-2.7-3c-1.3-4.1-2.5-8.3-3.6-12.4c-0.2-0.6-0.3-1.5,0-2c0.4-0.8,1.2-1.7,1.9-1.9
		c0.5-0.1,1.6,0.8,1.9,1.5c1.3,2.5,2.1,5.1,1.2,7.9c-0.2,0.6,0.1,1.3,0.6,1.9c0.3-1.6,0.5-3.2,0.8-4.8c0.2-1.7,1.4-2.3,2.8-1.8
		c1.3,0.4,2.6,1.2,3.5,2.2c0.8,0.9,0.9,2.5-0.3,3.1c-1.9,1-2.1,2.6-2.4,4.4C304.5,213.7,304.4,214.6,304.2,215.5L304.2,215.5z"/>
	<path style="clip-path:url(#SVGID_00000098194349146506447730000013744302010422184594_);fill:#009DFF;" d="M474,186.9
		c-0.7,0.9-1,1.8-1.7,2.1c-0.7,0.3-1.6,0-2.4-0.1c-1.1-0.2-2.1-0.9-3.2-0.9c-6.8-0.1-13.7-0.1-20.5,0c-0.8,0-1.6,0.4-2.3,0.8
		c-1.2,0.8-2.4,0.9-3.4-0.2c-0.9-1-0.9-2.2,0-3.2c1-1.1,2.2-1,3.4-0.2c0.7,0.4,1.5,0.8,2.3,0.9c7,0.1,14.1,0.1,21.1,0
		c0.8,0,1.6-0.6,2.5-0.9c0.9-0.2,1.8-0.5,2.6-0.3C473,185.1,473.4,186.1,474,186.9 M472.9,186.9c-0.8-0.5-1.3-1.1-1.7-1
		c-0.4,0.1-1.1,0.7-1.1,1.1c0,0.4,0.7,1,1.1,1C471.7,188,472.2,187.4,472.9,186.9 M442.2,185.2c-0.6,0.8-1.1,1.2-1.1,1.7
		c0,0.4,0.7,1.1,0.9,1.1c0.5-0.1,1.2-0.6,1.2-1C443.4,186.6,442.8,186.1,442.2,185.2"/>
	<path style="clip-path:url(#SVGID_00000098194349146506447730000013744302010422184594_);fill:#009DFF;" d="M414.9,270.4
		c-0.7,0.8-1.1,1.8-1.7,2.1c-0.7,0.3-2,0.3-2.4-0.2c-1-1-2.1-1-3.2-1c-4.9,0-9.8,0-14.7,0c-0.8,0-1.6,0.4-2.3,0.8
		c-1.2,0.8-2.4,0.9-3.4-0.1c-1-1-1-2.2,0-3.2c1-1.1,2.1-1,3.4-0.2c0.7,0.4,1.5,0.8,2.3,0.8c5.1,0.1,10.2,0.1,15.3,0
		c0.8,0,1.6-0.6,2.5-0.8c0.9-0.2,1.8-0.5,2.6-0.3C413.8,268.6,414.2,269.5,414.9,270.4 M388.8,268.8c-0.5,0.7-1.1,1.2-1.1,1.7
		c0,0.4,0.7,0.8,1.1,1.2c0.4-0.4,1.1-0.8,1.1-1.2C390,270,389.4,269.5,388.8,268.8 M413.7,270.3c-0.7-0.5-1.2-1.1-1.6-1
		c-0.4,0.1-1.1,0.8-1,1.2c0,0.4,0.7,1,1.1,1.1C412.5,271.5,413,270.9,413.7,270.3"/>
	<path style="clip-path:url(#SVGID_00000098194349146506447730000013744302010422184594_);fill:#009DFF;" d="M455.3,240.7
		c-0.7,0.8-1,1.8-1.7,2c-0.7,0.3-1.8,0-2.6-0.2c-0.9-0.2-1.8-0.9-2.7-0.9c-5.2-0.1-10.4-0.1-15.6,0c-0.8,0-1.6,0.4-2.3,0.9
		c-1.2,0.8-2.4,0.9-3.4-0.1c-1-1-1-2.2,0-3.2c1-1.1,2.2-1,3.4-0.2c0.7,0.4,1.5,0.8,2.3,0.9c5.3,0.1,10.6,0.1,15.8,0
		c0.8,0,1.6-0.6,2.5-0.9c0.9-0.2,1.9-0.5,2.6-0.3C454.2,238.9,454.6,239.9,455.3,240.7 M430.4,240.8c-0.8-0.6-1.2-1.1-1.7-1.1
		c-0.4,0-1.1,0.7-1.1,1c0.1,0.5,0.6,1.1,1,1.2C429,241.9,429.5,241.3,430.4,240.8 M454.1,240.8c-0.7-0.6-1.2-1.2-1.6-1.2
		c-0.4,0-0.8,0.6-1.3,1c0.4,0.4,0.7,1.1,1.1,1.2C452.8,241.9,453.3,241.3,454.1,240.8"/>
	<path style="clip-path:url(#SVGID_00000098194349146506447730000013744302010422184594_);fill:#009DFF;" d="M452.2,209
		c-0.9-0.3-1.5-0.3-1.7-0.5c-1-1.4-2.5-1.1-3.9-1.1c-3.1,0-6.2,0-9.2,0c-1.6,0-3.3-0.3-4.7,1.1c-0.4,0.4-2.2,0-2.9-0.6
		c-1-0.8-0.9-2.3,0.1-2.9c0.8-0.5,2.5-0.8,3-0.3c1.1,1.1,2.3,1,3.6,1c3.7,0,7.4,0.1,11.1,0c0.9,0,1.8-0.7,2.7-0.9
		c1-0.2,2.2-0.5,2.9,0c0.6,0.4,1,1.8,0.8,2.5C453.7,207.9,452.7,208.5,452.2,209 M453.4,206.6c-0.8-0.6-1.3-1.2-1.6-1.2
		c-0.4,0.1-1,0.7-1.1,1.1c-0.1,0.2,0.6,1,1,1C452.1,207.6,452.6,207.1,453.4,206.6 M431.6,204.9c-0.6,0.7-1.2,1.1-1.2,1.6
		c0,0.4,0.7,1.1,1.1,1.1c0.4,0,1.1-0.6,1.1-1C432.7,206.1,432.1,205.6,431.6,204.9"/>
	<path style="clip-path:url(#SVGID_00000098194349146506447730000013744302010422184594_);fill:#009DFF;" d="M449.6,165.6
		c-0.7,0.8-1.1,1.8-1.8,2c-0.8,0.3-1.7-0.1-2.6-0.3c-0.8-0.2-1.6-0.8-2.5-0.8c-2.6-0.1-5.2,0-7.7,0c-1.4,0-2.8-0.2-3.9,1.1
		c-0.9,0.9-2.2,0.5-3-0.5c-0.8-1-0.9-2.1,0-3.1c0.8-1,2.1-1.4,3-0.4c1.2,1.2,2.6,1.1,4,1.1c2.3,0,4.5,0,6.8,0c1.4,0,2.7,0.2,3.8-1.1
		c0.4-0.4,1.6-0.4,2.2-0.1C448.6,163.9,448.9,164.8,449.6,165.6 M430,163.9c-0.6,0.7-1.2,1.2-1.2,1.6c0,0.4,0.7,0.8,1.1,1.2
		c0.4-0.4,1.1-0.8,1.1-1.2C431.1,165.2,430.5,164.7,430,163.9 M448.4,165.7c-0.7-0.6-1.1-1.3-1.5-1.2c-0.4,0-1.1,0.6-1.2,1
		c0,0.4,0.6,1.1,1,1.2C447.2,166.8,447.7,166.2,448.4,165.7"/>
	<path style="clip-path:url(#SVGID_00000098194349146506447730000013744302010422184594_);fill:#009DFF;" d="M321.6,156.3
		c1,1.7,1.1,3,0.1,4.5c-0.5,0.8-0.6,1.9-0.7,3c3-3,3.2-3,5.2-1.4c-3.1,1.4-5.1,3.7-5.4,7.3c-0.9-1.4-1.9-2.8-2.5-4.4
		c-0.4-1-0.3-2.2-1.6-2.7c-0.1,0,0-1.1,0.1-1.1C319.8,161.3,320.5,158.8,321.6,156.3"/>
	<path style="clip-path:url(#SVGID_00000098194349146506447730000013744302010422184594_);fill:#009DFF;" d="M435.4,224.2
		c-0.7,0.8-1.2,1.7-1.9,2c-0.7,0.2-1.8,0.1-2.4-0.3c-2-1.3-6.5-1.3-8.5,0.1c-1.1,0.8-2.3,0.7-3.2-0.3c-0.8-1-0.9-2.1-0.1-3.1
		c0.9-1,2-1.2,3.2-0.4c2.2,1.5,6.5,1.4,8.7,0.1c0.7-0.4,1.9-0.4,2.6-0.1C434.4,222.4,434.8,223.3,435.4,224.2 M434.2,224.1
		c-0.7-0.6-1.2-1.2-1.6-1.2c-0.4,0-0.8,0.7-1.2,1.1c0.4,0.4,0.8,1.1,1.2,1.1C433,225.2,433.5,224.6,434.2,224.1 M421.3,222.4
		c-0.6,0.7-1.2,1.1-1.2,1.5c0,0.4,0.6,0.9,1,1.3c0.4-0.4,1.1-0.7,1.2-1.1C422.3,223.7,421.8,223.2,421.3,222.4"/>
	<path style="clip-path:url(#SVGID_00000098194349146506447730000013744302010422184594_);fill:#009DFF;" d="M345,172.6
		c-0.4-0.6-1-1-1.2-1.7c-0.4-1.7-1.3-2.1-2.9-1.8c-0.5,0.1-1-0.1-1.5-0.2c0.2-0.5,0.3-1,0.6-1.5c0.7-1,1.7-1.7,2.2-2.8
		c0.7-1.6,1.1-3.4,1.6-5.1c0.2-0.7,0.3-1.5,0.4-2.2c0.4,0.1,0.7,0.1,0.7,0.1c0.1,2.4,1.3,4.7,0.4,7.3c-0.4,1.2-0.1,2.7,0,4
		c0.1,1.1,0.4,2.3,0.5,3.4C345.6,172.4,345.3,172.5,345,172.6"/>
	<path style="clip-path:url(#SVGID_00000098194349146506447730000013744302010422184594_);fill:#009DFF;" d="M406.9,152.4
		c-1.4,0.5-2.9,1-4.3,1.6c-1.2,0.5-2.2,0.4-3-0.6c-0.8-1-0.8-2.1,0.1-3.1c0.9-1,2-1.1,3.2-0.3c1.9,1.4,6.6,1.4,8.5,0
		c1.1-0.8,2.4-0.9,3.1,0.3c0.5,0.8,0.5,2.2,0.1,3c-0.5,1.1-2,1.5-2.9,0.6C410.3,152.5,408.7,152.9,406.9,152.4 M401.3,150.3
		c-0.5,0.8-1,1.3-1,1.7c0.1,0.4,0.7,0.8,1.1,1.1c0.4-0.4,1-0.8,1-1.3C402.6,151.4,401.9,151,401.3,150.3 M412.8,153.6
		c0.5-0.8,1.1-1.2,1.1-1.7c0-0.4-0.7-0.8-1.1-1.2c-0.4,0.4-1,0.8-1.1,1.2C411.7,152.4,412.3,152.8,412.8,153.6"/>
	<path style="clip-path:url(#SVGID_00000098194349146506447730000013744302010422184594_);fill:#009DFF;" d="M402.6,178
		c-0.8-0.7-1.7-1.1-2-1.8c-0.3-0.7-0.1-1.8,0.3-2.4c1.3-2,1.4-3.7,0-5.5c-0.8-1.1-0.9-2.2,0.1-3.2c1-1,2.2-1,3.2-0.1
		c1.1,1,1.2,2.1,0.3,3.3c-1.3,1.8-1.2,3.5,0,5.5c0.4,0.7,0.5,1.8,0.2,2.6C404.5,177,403.5,177.4,402.6,178 M402.7,173.5
		c-0.6,0.8-1.2,1.3-1.1,1.7c0,0.4,0.7,0.9,1.2,1c0.3,0.1,1-0.7,1-1C403.8,174.8,403.3,174.4,402.7,173.5 M404.4,166.7
		c-0.8-0.5-1.3-1-1.8-1c-0.4,0-1.1,0.8-1,1c0.1,0.5,0.7,1.1,1.1,1.2C403.1,167.9,403.6,167.3,404.4,166.7"/>
	<path style="clip-path:url(#SVGID_00000098194349146506447730000013744302010422184594_);fill:#009DFF;" d="M403.6,236
		c-0.8-0.3-1.3-0.4-1.6-0.6c-2-1.7-3.9-1.5-6,0c-1,0.8-2.2,0.5-3-0.5c-0.9-1.1-0.8-2.2,0.1-3.2c0.9-0.9,2-1,3.1-0.2
		c2.1,1.5,3.4,1.4,5.8,0c0.7-0.4,2.1-0.3,2.7,0.1c0.6,0.5,1,1.8,0.8,2.6C405.2,234.9,404.2,235.4,403.6,236 M396.4,233.2
		c-0.8-0.5-1.3-1-1.7-1c-0.4,0.1-1,0.8-1,1.2c0,0.4,0.8,1,1.2,1C395.3,234.4,395.7,233.8,396.4,233.2 M403.3,231.7
		c-0.5,0.7-1.2,1.2-1.1,1.6c0,0.4,0.7,0.8,1.1,1.2c0.4-0.4,1.1-0.8,1.2-1.2C404.4,232.9,403.8,232.4,403.3,231.7"/>
	<path style="clip-path:url(#SVGID_00000098194349146506447730000013744302010422184594_);fill:#009DFF;" d="M415,190.6
		c0.8,0.7,1.8,1.1,2,1.8c0.3,0.7,0.1,1.9-0.3,2.6c-1.1,1.7-1.2,3.7,0,5.3c0.9,1.1,0.9,2.2,0,3.2c-1,1-2.3,1.1-3.4,0.1
		c-1-0.9-1-2.1-0.2-3.2c1.3-1.9,1.2-3.6,0.1-5.5c-0.4-0.7-0.5-1.8-0.2-2.6C413.2,191.7,414.2,191.3,415,190.6 M414.9,191.8
		c-0.5,0.8-1.1,1.3-1,1.7c0.1,0.4,0.7,0.8,1.1,1.2c0.4-0.4,1.1-0.8,1.1-1.3C416.1,193,415.5,192.5,414.9,191.8 M416.7,202
		c-0.8-0.6-1.2-1.1-1.7-1.1c-0.4,0-1.1,0.7-1.1,0.9c0.1,0.5,0.6,1.2,1,1.2C415.3,203,415.8,202.5,416.7,202"/>
	<path style="clip-path:url(#SVGID_00000098194349146506447730000013744302010422184594_);fill:#009DFF;" d="M435.1,144.6
		c-1.1,0.6-2,1-2.8,1.5c-1.2,0.7-2.3,0.7-3.2-0.4c-0.9-1-0.8-2.1,0-3.1c0.9-1.1,2-1.2,3.2-0.4c2.1,1.4,3.6,1.4,5.7,0
		c1.2-0.8,2.3-0.7,3.2,0.4c0.8,1,0.9,2.1,0,3.1c-0.9,1.1-2,1.1-3.2,0.4C437.1,145.6,436.2,145.1,435.1,144.6 M437.7,144.2
		c0.8,0.5,1.2,1.1,1.7,1.1c0.4-0.1,0.8-0.7,1.2-1.1c-0.4-0.4-0.8-1-1.2-1.1C438.9,143,438.4,143.6,437.7,144.2 M432.5,144.2
		c-0.7-0.6-1.2-1.2-1.6-1.2c-0.4,0-1.1,0.6-1.1,1c0,0.4,0.6,1.1,1,1.1C431.2,145.3,431.7,144.7,432.5,144.2"/>
	<path style="clip-path:url(#SVGID_00000098194349146506447730000013744302010422184594_);fill:#009DFF;" d="M395.1,128.9
		c-0.6,0.9-1,1.8-1.7,2.1c-0.7,0.3-1.9,0.2-2.6-0.2c-1.9-1.2-3.7-1.3-5.5,0c-1.1,0.8-2.2,0.8-3.2-0.2c-1-1-1-2.2-0.1-3.2
		c0.9-1,2-1.2,3.2-0.4c2.1,1.4,3.6,1.3,5.6,0.1c0.6-0.4,1.7-0.5,2.4-0.2C394,127.2,394.4,128.1,395.1,128.9 M392.4,130.7
		c0.5-0.8,1.1-1.3,1-1.7c-0.1-0.4-0.8-1.1-1.2-1.1c-0.4,0-1,0.7-1.1,1.2C391.2,129.5,391.8,129.9,392.4,130.7 M385.1,129.4
		c0.2-0.3,0.4-0.7,0.6-1c-0.6-0.2-1.2-0.6-1.7-0.5c-0.5,0.1-1.2,0.6-1.3,1c-0.1,0.4,0.5,1.1,0.9,1.3
		C384.1,130.2,384.6,129.7,385.1,129.4"/>
	<path style="clip-path:url(#SVGID_00000098194349146506447730000013744302010422184594_);fill:#009DFF;" d="M423.9,261.4
		c-1,0.5-1.9,0.8-2.7,1.3c-1.2,0.8-2.4,0.8-3.4-0.3c-0.9-1-0.9-2.2,0.1-3.2c1-1.1,2.2-1,3.4,0c1.5,1.2,3.6,1.2,5.1,0
		c1.1-0.9,2.3-1,3.4,0.1c1,1,1,2.2,0.1,3.2c-1,1.1-2.1,1-3.4,0.3C425.7,262.2,424.9,261.8,423.9,261.4 M429.8,261
		c-0.7-0.6-1.1-1.2-1.5-1.2c-0.4,0-1.2,0.6-1.2,1c0,0.4,0.6,1.1,1,1.2C428.5,262,429,261.4,429.8,261 M419.7,262.5
		c0.5-0.8,1.1-1.3,1-1.7c-0.1-0.4-0.7-0.8-1.1-1.2c-0.4,0.4-1,0.8-1.1,1.2C418.5,261.3,419.1,261.7,419.7,262.5"/>
	<path style="clip-path:url(#SVGID_00000098194349146506447730000013744302010422184594_);fill:#009DFF;" d="M429.5,178.7
		c-0.7,0.8-1.1,1.8-1.8,2c-0.8,0.2-1.9,0.1-2.6-0.4c-1.7-1.1-3.7-1.2-5.2,0c-1.2,0.9-2.5,1-3.5-0.2c-0.9-1-0.8-2.2,0.2-3.2
		c1.1-1,2.3-0.9,3.4,0c1.4,1.2,3.5,1,5.1,0c0.7-0.5,1.9-0.6,2.7-0.3C428.5,176.8,428.9,177.8,429.5,178.7 M419.9,178.5
		c-0.8-0.5-1.3-1-1.7-1c-0.4,0.1-0.8,0.7-1.1,1.2c0.4,0.4,0.8,1,1.3,1C418.8,179.7,419.2,179,419.9,178.5 M428.4,178.6
		c-0.8-0.6-1.3-1.2-1.7-1.1c-0.4,0.1-1,0.7-1.1,1.2c-0.1,0.2,0.6,1,1,1C427.1,179.7,427.6,179.1,428.4,178.6"/>
	<path style="clip-path:url(#SVGID_00000098194349146506447730000013744302010422184594_);fill:#009DFF;" d="M304.2,215.6
		c0.8-1.6,1.5-3.1,2.3-4.7c0.3-0.5,0.8-0.9,1.2-1.3c0.4,0.5,1.1,0.8,1.3,1.4c0.4,1,0.7,2.2,0.8,3.3c0.1,0.6-0.1,1.2-0.2,1.7
		c-0.6-0.1-1.2-0.2-1.9-0.4C305,217.5,305,217.5,304.2,215.6C304.2,215.5,304.2,215.6,304.2,215.6"/>
	<path style="clip-path:url(#SVGID_00000098194349146506447730000013744302010422184594_);fill:#009DFF;" d="M306.9,153.7
		c0,0.5-0.1,1-0.1,1.5c0,0.9-0.1,1.8,0.2,2.7c0.4,1.2,0.2,1.8-1.1,2c-0.4,0-0.7,0.1-1.1,0.2c-0.6,0.2-1.2,0.4-1.8,0.6
		c0.1-0.7,0.1-1.6,0.5-2.2c0.8-1.7,1.8-3.3,2.7-4.9C306.4,153.6,306.7,153.6,306.9,153.7"/>
	<path style="clip-path:url(#SVGID_00000098194349146506447730000013744302010422184594_);fill:#009DFF;" d="M303.7,219.8
		c-0.4,1-0.8,2-1.2,3c-0.1,0.3-0.3,0.6-0.5,0.9c-0.3-0.2-0.7-0.4-0.9-0.7c-0.3-0.5-0.4-1.2-0.6-1.8c-0.3-0.8-1.3-1.9,0.1-2.3
		C301.4,218.6,303.2,217.6,303.7,219.8C303.6,219.9,303.7,219.8,303.7,219.8"/>
	<path style="clip-path:url(#SVGID_00000098194349146506447730000013744302010422184594_);fill:#009DFF;" d="M300,181.5
		c-1.2,1.1-2.3,2-3.4,3c-0.2-0.1-0.4-0.3-0.6-0.4c0.7-1.7,1.4-3.5,2.3-5.6C299,179.7,299.5,180.5,300,181.5"/>
	<path style="clip-path:url(#SVGID_00000098194349146506447730000013744302010422184594_);fill:#FFFFFF;" d="M155.2,362
		c-6.3-6.3-9.5-14-9.5-22.9c0-8.9,3.2-16.5,9.5-22.9c6.3-6.3,14-9.5,22.9-9.5c8.9,0,16.5,3.2,22.9,9.5c6.3,6.4,9.5,14,9.5,22.9
		c0,8.9-3.2,16.6-9.5,22.9c-6.4,6.3-14,9.5-22.9,9.5C169.2,371.5,161.6,368.3,155.2,362"/>
	<path style="clip-path:url(#SVGID_00000098194349146506447730000013744302010422184594_);fill:#FFFFFF;" d="M263.8,321.5
		c-2-1.9-4.3-3.4-6.9-4.5c-3-1.2-6.1-1.9-9.3-1.9c-3.2,0-6.4,0.6-9.3,1.9c-2.9,1.2-5.4,3-7.6,5.2c-2.2,2.2-3.9,4.7-5.1,7.6
		c-1.2,3-1.9,6.1-1.9,9.3c0,3.3,0.6,6.4,1.9,9.4c1.2,2.9,2.9,5.4,5.1,7.6c2.2,2.2,4.8,4,7.6,5.2c3,1.2,6.1,1.9,9.3,1.9
		c3.2,0,6.4-0.6,9.3-1.9c2.6-1.1,4.9-2.6,6.9-4.5l5.9,5.9c-2.8,2.6-6.1,4.7-9.6,6.2c-4,1.7-8.2,2.5-12.6,2.5s-8.6-0.8-12.6-2.5
		c-3.9-1.6-7.3-3.9-10.3-6.9c-3-3-5.3-6.4-6.9-10.3c-1.7-4-2.5-8.2-2.5-12.6c0-4.4,0.8-8.6,2.5-12.6c1.6-3.9,3.9-7.3,6.9-10.3
		c3-3,6.4-5.3,10.3-6.9c4-1.7,8.2-2.5,12.6-2.5s8.6,0.8,12.6,2.5c3.6,1.5,6.8,3.6,9.6,6.2L263.8,321.5z"/>
	<polygon style="clip-path:url(#SVGID_00000098194349146506447730000013744302010422184594_);fill:#FFFFFF;" points="315,315.6 
		299.2,315.6 299.2,371.5 290.2,371.5 290.2,315.6 274.4,315.6 274.4,306.8 315,306.8 	"/>
	<polygon style="clip-path:url(#SVGID_00000098194349146506447730000013744302010422184594_);fill:#FFFFFF;" points="344.1,363.5 
		317.9,363.5 314.7,371.5 305,371.5 330.9,306.7 356.9,371.5 347.3,371.5 	"/>
	<polygon style="clip-path:url(#SVGID_00000098194349146506447730000013744302010422184594_);fill:#FFFFFF;" points="399.4,371.5 
		361.9,371.5 361.9,306.8 370.7,306.8 370.7,362.6 399.4,362.6 	"/>
	<path style="clip-path:url(#SVGID_00000098194349146506447730000013744302010422184594_);fill:#009DFF;" d="M439,270.3
		c-9.4,0-17,7.6-17,17c0,9.4,7.6,17,17,17s17-7.6,17-17C456,277.9,448.4,270.3,439,270.3 M451,283.9c-0.2-0.2-0.3-0.3-0.5-0.5
		c-0.3-0.3-0.7-0.7-1-1c-0.1-0.1-0.2-0.1-0.2-0.1c-2.2,0-4.5,0-6.7,0c0,0,0,0-0.1,0c0.2,0.1,0.4,0.2,0.6,0.3c2.7,1.2,4.6,3.2,5.6,6
		c0.3,0.9,0.5,1.9,0.5,2.8c0,0.1,0,0.2,0.2,0.2c0.3,0,0.6,0,0.9,0v2.7h-2.6v-2.7h1c0-4.3-3.5-8.6-8.2-9.2v0.9h-2.7v-0.9
		c-4.6,0.6-8.2,4.6-8.2,9.2h1v2.7h-2.6v-2.7h0.7c0.1,0,0.1,0,0.2,0c0.1,0,0.2,0,0.2-0.2c0.1-1.9,0.6-3.6,1.7-5.2
		c1.2-1.8,2.8-3.1,4.9-3.9c0.1,0,0.1,0,0.2-0.1c0,0-0.1,0-0.1,0h-6.6c-0.1,0-0.2,0-0.3,0.1c-0.4,0.4-0.9,0.9-1.3,1.3
		c-0.1,0-0.1,0.1-0.1,0.2c-0.6-0.7-1.3-1.3-1.9-1.9c0.6-0.6,1.2-1.2,1.9-1.9c0,0,0,0,0.1,0.1c0.5,0.5,0.9,0.9,1.4,1.4
		c0.1,0.1,0.2,0.1,0.3,0.1h8.7c0.1,0,0.1,0,0.2,0v-1h2.7v0.8c0,0.2,0,0.2,0.2,0.2c2.8,0,5.7,0,8.6,0c0.2,0,0.3,0,0.5-0.2
		c0.5-0.5,0.9-0.9,1.4-1.4c0.6,0.6,1.3,1.3,1.9,1.9C452.2,282.7,451.6,283.3,451,283.9"/>
	<path style="clip-path:url(#SVGID_00000098194349146506447730000013744302010422184594_);fill:#FFFFFF;" d="M461.2,371.5v-64.7
		h14.7c4.4,0,8.6,0.8,12.6,2.5c3.9,1.6,7.3,4,10.3,7c3,3,5.2,6.4,6.9,10.3c1.7,4,2.6,8.2,2.6,12.5c0,4.4-0.9,8.6-2.6,12.6
		c-1.6,3.9-3.9,7.3-6.9,10.3c-3,3-6.4,5.3-10.3,6.9c-4,1.7-8.2,2.6-12.6,2.6H461.2z"/>
	<polygon style="clip-path:url(#SVGID_00000098194349146506447730000013744302010422184594_);fill:#FFFFFF;" points="521.9,315.6 
		521.9,345.7 543.9,345.7 543.9,354.5 521.9,354.5 521.9,362.6 550.5,362.6 550.5,371.5 513,371.5 513,306.8 550.5,306.8 
		550.5,315.6 	"/>
	<polygon style="clip-path:url(#SVGID_00000098194349146506447730000013744302010422184594_);fill:#FFFFFF;" points="594.2,363.5 
		568.1,363.5 564.9,371.5 555.2,371.5 581.1,306.7 607.1,371.5 597.4,371.5 	"/>
	<path style="clip-path:url(#SVGID_00000098194349146506447730000013744302010422184594_);fill:#FFFFFF;" d="M614.1,366.8
		c-4.1-3.5-6.1-8.1-6.1-13.8h8.7c0,3.3,1.3,5.8,3.8,7.6c2.1,1.4,4.4,2.1,6.9,2.1c3.2,0,5.9-0.8,8.1-2.4c2.2-1.6,3.3-3.9,3.3-7
		c0-2-0.7-3.6-2-4.7c-1.8-1.9-5.1-3.2-9.9-3.7c-6.6-0.8-11.7-3.1-15.2-7c-2.9-3.2-4.4-6.9-4.4-11.1c0-4.9,1.5-9.3,4.4-13.1
		c3.7-4.7,8.8-7,15.3-7c6,0,11,2,14.9,5.9c3.9,3.9,5.9,9.1,5.9,15.7h-8.7c0-3.7-0.9-6.7-2.7-8.9c-2.2-2.6-5.3-4-9.4-4
		c-4.6,0-7.8,1.9-9.6,5.7c-0.9,2-1.4,3.9-1.4,5.8c0,1.7,0.6,3.2,1.7,4.7c2,2.6,5.4,4.1,10.2,4.7c7.3,0.8,12.6,3.2,15.9,7.2
		c2.5,3,3.8,6.7,3.8,11.3c0,4.6-1.9,8.6-5.7,11.8c-3.8,3.3-8.6,4.9-14.4,4.9C622.3,371.5,617.8,369.9,614.1,366.8"/>
</g>
</svg>
